<?xml version="1.0" encoding="UTF-8"?>
<svg id="Capa_2" data-name="Capa 2" xmlns="http://www.w3.org/2000/svg" viewBox="0 0 688.64 160.23">
  <g id="Capa_1-2" data-name="Capa 1">
    <g>
      <g>
        <path d="M120.31,118.75c-10.02-12.27-20.77-23.85-31.83-35.16,23.96-.19,47.88-.96,71.75-3.47-23.88-2.52-47.8-3.28-71.76-3.47,11.06-11.32,21.81-22.91,31.84-35.18l-8.89,27.98c3.78-7.1,20.04-37.65,23.49-44.14-6.65,3.54-36.85,19.62-44.14,23.49l27.98-8.89c-12.27,10.03-23.86,20.79-35.18,31.85-.2-23.96-.96-47.88-3.47-71.76-2.5,23.88-3.27,47.81-3.47,71.76-11.32-11.06-22.91-21.82-35.18-31.85l27.98,8.89c-7.1-3.78-37.65-20.04-44.14-23.49,3.54,6.65,19.62,36.85,23.49,44.14l-8.89-27.98c10.03,12.27,20.79,23.86,31.85,35.18-23.96,.2-47.88,.96-71.76,3.47,23.88,2.5,47.8,3.27,71.76,3.47-11.06,11.31-21.81,22.9-31.84,35.17l8.89-27.97c-3.78,7.1-20.04,37.65-23.49,44.14,6.65-3.54,36.85-19.62,44.14-23.49l-27.97,8.89c12.27-10.02,23.85-20.77,35.16-31.84,.19,23.96,.96,47.88,3.47,71.75,2.51-23.88,3.28-47.8,3.47-71.75,11.31,11.06,22.9,21.81,35.16,31.84l-27.97-8.89c7.1,3.78,37.65,20.04,44.14,23.49-3.54-6.65-19.62-36.85-23.49-44.14l8.89,27.97Z"/>
        <g>
          <path d="M209.61,114.38h-12.42V45.85h27.31c11.44,0,19.92,1.97,25.44,5.92,5.52,3.94,8.28,9.96,8.28,18.04s-2.76,14.33-8.28,18.34c-5.52,4.01-14,6.01-25.44,6.01h-14.89v20.21Zm0-57.88v27.11h14.99c7.56,0,12.98-1.08,16.27-3.25,3.29-2.17,4.93-5.68,4.93-10.55s-1.64-8.13-4.93-10.21c-3.29-2.07-8.71-3.11-16.27-3.11h-14.99Z"/>
          <path d="M266.9,79.97c0-12.23,3.38-21.21,10.16-26.97,6.77-5.75,17.25-8.63,31.45-8.63s24.7,2.88,31.5,8.63c6.8,5.75,10.21,14.74,10.21,26.97s-3.4,21.35-10.21,27.16c-6.8,5.82-17.3,8.73-31.5,8.73s-24.68-2.91-31.45-8.73c-6.77-5.82-10.16-14.87-10.16-27.16Zm19.23,19.52c4.6,3.88,12.06,5.82,22.38,5.82s17.85-1.97,22.38-5.92c4.6-3.94,6.9-10.42,6.9-19.42s-2.3-15.41-6.9-19.23c-4.47-3.81-11.93-5.72-22.38-5.72s-17.91,1.91-22.38,5.72c-4.54,3.75-6.8,10.16-6.8,19.23s2.27,15.58,6.8,19.52Z"/>
          <path d="M414.2,114.38h-51.57V45.85h12.42v57.98h39.14v10.55Z"/>
          <path d="M498.7,114.38h-12.72l-6.11-17.35h-39.44l-6.11,17.35h-12.62l24.06-68.53h28.99l23.96,68.53Zm-43.97-57.88l-10.55,29.97h32.04l-10.55-29.97h-10.94Z"/>
          <path d="M546.81,91.21l28.79,23.17h-17.55l-28.59-22.68h-8.58v22.68h-12.52V45.85h29.58c21.43,0,32.14,7.43,32.14,22.28,0,13.41-7.76,21.1-23.27,23.07Zm-8.87-34.71h-17.06v24.75h17.06c6.9,0,11.9-1.02,14.99-3.06,3.09-2.04,4.63-5.39,4.63-10.06,0-4.14-1.55-7.11-4.63-8.92-3.09-1.81-8.09-2.71-14.99-2.71Z"/>
          <path d="M597.59,114.38h-12.42V45.85h12.42V114.38Z"/>
          <path d="M641.96,115.86c-10.85,0-18.87-1.94-24.06-5.82-5.19-3.88-7.95-9.96-8.28-18.24h11.83c.26,4.87,1.99,8.33,5.18,10.4,3.19,2.07,8.4,3.11,15.63,3.11,12.29,0,18.44-3.52,18.44-10.55,0-2.69-.86-4.8-2.56-6.31-1.71-1.51-4.44-2.53-8.18-3.06l-19.23-2.96c-6.57-.99-11.37-2.91-14.4-5.77-3.02-2.86-4.54-6.92-4.54-12.18,0-6.57,2.5-11.57,7.49-14.99,4.99-3.42,12.29-5.13,21.89-5.13s17.12,1.76,21.99,5.28c4.86,3.52,7.66,9.09,8.38,16.71h-12.03c-.46-4.14-2.12-7.08-4.98-8.82-2.86-1.74-7.35-2.61-13.46-2.61-11.44,0-17.16,3.09-17.16,9.27,0,4.14,3.52,6.77,10.55,7.89l18.83,2.86c6.71,1.05,11.65,3.17,14.84,6.36,3.19,3.19,4.78,7.58,4.78,13.16,0,6.9-2.65,12.19-7.94,15.87-5.29,3.68-12.97,5.52-23.02,5.52Z"/>
        </g>
      </g>
      <path d="M674.98,33.88h-2.06v-1.26h5.64v1.24l-2.06,.02v4.49h-1.52v-4.49Zm10.88-1.26h2.78v5.75h-1.52v-4.49h-.27l-1.63,4.49h-1.69l-1.71-4.49h-.27v4.49h-1.52v-5.75h2.8l1.48,4.2,1.55-4.2Z"/>
    </g>
  </g>
</svg>