<?xml version="1.0" encoding="UTF-8"?>
<svg id="Capa_2" data-name="Capa 2" xmlns="http://www.w3.org/2000/svg" viewBox="0 0 591.85 453.48">
  <g id="Capa_1-2" data-name="Capa 1">
    <g>
      <g>
        <g>
          <path d="M15.46,393.2H0v-85.25H33.98c14.23,0,24.78,2.45,31.65,7.36,6.87,4.91,10.3,12.39,10.3,22.45s-3.43,17.83-10.3,22.82c-6.87,4.99-17.42,7.48-31.65,7.48H15.46v25.15Zm0-72v33.73h18.65c9.4,0,16.15-1.35,20.24-4.05,4.09-2.7,6.13-7.07,6.13-13.12s-2.04-10.12-6.13-12.7c-4.09-2.58-10.84-3.86-20.24-3.86H15.46Z"/>
          <path d="M86.72,350.39c0-15.21,4.21-26.39,12.63-33.55,8.42-7.15,21.47-10.73,39.13-10.73s30.73,3.58,39.19,10.73c8.46,7.16,12.7,18.34,12.7,33.55s-4.23,26.56-12.7,33.79-21.53,10.86-39.19,10.86-30.71-3.62-39.13-10.86c-8.42-7.24-12.63-18.5-12.63-33.79Zm23.92,24.29c5.72,4.83,15.01,7.24,27.84,7.24s22.2-2.45,27.84-7.36c5.72-4.91,8.59-12.96,8.59-24.17s-2.86-19.18-8.59-23.92c-5.56-4.74-14.84-7.12-27.84-7.12s-22.28,2.37-27.84,7.12c-5.64,4.66-8.46,12.63-8.46,23.92s2.82,19.38,8.46,24.29Z"/>
          <path d="M269.98,393.2h-64.15v-85.25h15.46v72.13h48.7v13.12Z"/>
          <path d="M375.1,393.2h-15.82l-7.6-21.59h-49.07l-7.6,21.59h-15.7l29.93-85.25h36.06l29.81,85.25Zm-54.71-72l-13.12,37.29h39.87l-13.12-37.29h-13.62Z"/>
          <path d="M434.96,364.37l35.82,28.83h-21.83l-35.57-28.21h-10.67v28.21h-15.58v-85.25h36.8c26.66,0,39.99,9.24,39.99,27.72,0,16.68-9.65,26.25-28.95,28.7Zm-11.04-43.18h-21.22v30.79h21.22c8.59,0,14.8-1.27,18.65-3.8,3.84-2.53,5.77-6.7,5.77-12.51,0-5.15-1.92-8.85-5.77-11.1-3.84-2.25-10.06-3.37-18.65-3.37Z"/>
          <path d="M498.13,393.2h-15.46v-85.25h15.46v85.25Z"/>
          <path d="M553.33,395.04c-13.49,0-23.47-2.41-29.93-7.24-6.46-4.82-9.9-12.39-10.3-22.69h14.72c.33,6.05,2.47,10.37,6.44,12.94,3.97,2.58,10.45,3.86,19.44,3.86,15.29,0,22.94-4.37,22.94-13.12,0-3.35-1.06-5.97-3.19-7.85-2.13-1.88-5.52-3.15-10.18-3.8l-23.92-3.68c-8.18-1.23-14.15-3.62-17.91-7.18-3.76-3.56-5.64-8.61-5.64-15.15,0-8.18,3.11-14.39,9.32-18.65,6.21-4.25,15.29-6.38,27.23-6.38s21.3,2.19,27.35,6.56c6.05,4.38,9.53,11.31,10.43,20.79h-14.96c-.57-5.15-2.64-8.81-6.19-10.98-3.56-2.17-9.14-3.25-16.74-3.25-14.23,0-21.34,3.84-21.34,11.53,0,5.15,4.37,8.42,13.12,9.81l23.43,3.56c8.34,1.31,14.49,3.95,18.46,7.91,3.97,3.97,5.95,9.43,5.95,16.38,0,8.59-3.29,15.17-9.87,19.75-6.58,4.58-16.13,6.87-28.64,6.87Z"/>
        </g>
        <path d="M359.11,186.67c-15.76-19.28-32.65-37.49-50.04-55.28,37.66-.3,75.26-1.5,112.8-5.45-37.54-3.95-75.14-5.16-112.81-5.45,17.39-17.8,34.29-36.02,50.06-55.3l-13.98,43.99c5.94-11.16,31.5-59.19,36.93-69.38-10.46,5.57-57.93,30.83-69.38,36.93l43.99-13.98c-19.28,15.77-37.5,32.68-55.3,50.06-.31-37.66-1.52-75.27-5.45-112.81-3.93,37.54-5.14,75.15-5.45,112.81-17.8-17.39-36.02-34.3-55.3-50.06l43.99,13.98c-11.16-5.94-59.19-31.5-69.38-36.93,5.57,10.46,30.84,57.93,36.93,69.38l-13.98-43.99c15.77,19.28,32.68,37.5,50.06,55.3-37.66,.31-75.27,1.52-112.81,5.45,37.54,3.93,75.14,5.14,112.8,5.45-17.39,17.79-34.29,36-50.05,55.28l13.97-43.97c-5.94,11.16-31.5,59.19-36.93,69.38,10.46-5.57,57.93-30.83,69.38-36.93l-43.97,13.97c19.28-15.76,37.49-32.66,55.28-50.04,.3,37.66,1.5,75.26,5.45,112.8,3.95-37.54,5.16-75.14,5.45-112.8,17.78,17.39,35.99,34.29,55.28,50.04l-43.97-13.97c11.16,5.94,59.19,31.5,69.38,36.93-5.57-10.46-30.83-57.93-36.93-69.38l13.97,43.97Z"/>
      </g>
      <g>
        <path d="M101.07,444.46v-2.81h14.01v.57c0,3.86-1.13,6.7-3.38,8.53-2.25,1.83-5.69,2.74-10.33,2.74s-8.09-1-10.36-2.99c-2.27-1.99-3.41-5.05-3.41-9.18,0-8,4.56-12,13.67-12,7.69,0,12.08,2.67,13.17,8.02h-3.18c-.49-1.78-1.53-3.1-3.11-3.96s-3.82-1.29-6.72-1.29c-3.66,0-6.35,.74-8.07,2.21-1.73,1.47-2.59,3.8-2.59,6.99s.84,5.69,2.52,7.19c1.68,1.49,4.38,2.24,8.11,2.24,3.41,0,5.98-.51,7.71-1.54,1.73-1.02,2.66-2.6,2.79-4.71h-10.83Z"/>
        <path d="M133.5,444.86l10.77,8.12h-4.71l-10.8-8.09h-3.01v8.09h-3.24v-23.17h9.5c7.07,0,10.6,2.42,10.6,7.25s-3.03,7.41-9.09,7.79Zm-1.5-12.27h-6.25v9.53h6.25c2.56,0,4.42-.4,5.58-1.19,1.16-.79,1.74-2.08,1.74-3.86,0-1.56-.59-2.7-1.77-3.41-1.18-.71-3.03-1.07-5.55-1.07Z"/>
        <path d="M163.63,453.48c-4.68,0-8.16-.99-10.43-2.98-2.27-1.98-3.41-5.04-3.41-9.16s1.14-7.1,3.41-9.08c2.27-1.97,5.75-2.96,10.43-2.96s8.19,.98,10.46,2.94c2.27,1.96,3.41,4.99,3.41,9.09s-1.14,7.18-3.41,9.16c-2.27,1.98-5.76,2.98-10.46,2.98Zm0-2.78c3.72,0,6.44-.75,8.14-2.24,1.71-1.49,2.56-3.87,2.56-7.12s-.85-5.61-2.54-7.07c-1.69-1.46-4.41-2.19-8.16-2.19s-6.46,.72-8.14,2.17c-1.68,1.45-2.52,3.81-2.52,7.09s.85,5.66,2.56,7.14c1.71,1.48,4.41,2.22,8.11,2.22Z"/>
        <path d="M210.67,450.21l4.38-20.39h3.24l-5.05,23.17h-6.29l-5.75-20.39h-.97l-5.75,20.39h-6.29l-5.05-23.17h3.24l4.38,20.39h1.17l5.75-20.39h3.01v.03l.1-.03h2.94l5.75,20.39h1.17Z"/>
        <path d="M236.48,452.98h-3.18v-20.39h-8.76v-2.77h20.66v2.77h-8.73v20.39Z"/>
        <path d="M269.88,439.54v-9.73h3.21v23.17h-3.21v-10.67h-14.68v10.67h-3.21v-23.17h3.21v9.73h14.68Z"/>
        <path d="M297.42,452.98h-3.21v-23.17h3.21v23.17Z"/>
        <path d="M327.65,450.21v-20.39h3.18v23.17h-6.02l-14.51-20.39h-1.2v20.39h-3.21v-23.17h6.05l14.54,20.39h1.17Z"/>
        <path d="M348.74,453.48c-3.61,0-6.26-.64-7.94-1.91-1.68-1.27-2.58-3.3-2.69-6.08h3.08c.09,1.87,.72,3.21,1.89,4.01,1.17,.8,3.07,1.2,5.7,1.2,4.55,0,6.82-1.39,6.82-4.18,0-2.07-1.43-3.33-4.28-3.78l-6.29-1c-2.12-.33-3.67-.98-4.66-1.94-.99-.96-1.49-2.28-1.49-3.98,0-2.09,.82-3.71,2.46-4.83,1.64-1.12,3.98-1.69,7.04-1.69s5.58,.58,7.17,1.75c1.59,1.17,2.52,3.03,2.79,5.57h-3.14c-.18-1.61-.81-2.76-1.89-3.48-1.08-.71-2.74-1.07-4.96-1.07-4.23,0-6.35,1.23-6.35,3.68,0,1.76,1.34,2.85,4.01,3.28l6.19,.97c4.37,.62,6.55,2.77,6.55,6.45,0,2.25-.86,3.98-2.57,5.2-1.72,1.21-4.19,1.82-7.42,1.82Z"/>
        <path d="M375.93,452.98h-3.18v-20.39h-8.76v-2.77h20.66v2.77h-8.73v20.39Z"/>
        <path d="M394.65,452.98h-3.21v-23.17h3.21v23.17Z"/>
        <path d="M413.34,452.98h-3.18v-20.39h-8.76v-2.77h20.66v2.77h-8.73v20.39Z"/>
        <path d="M428.21,444.79v-14.98h3.21v14.98c0,2.05,.57,3.55,1.72,4.5s2.98,1.42,5.5,1.42,4.4-.47,5.57-1.42c1.17-.95,1.76-2.45,1.76-4.5v-14.98h3.18v14.98c0,2.94-.86,5.13-2.59,6.55-1.73,1.43-4.36,2.14-7.91,2.14s-6.17-.71-7.87-2.12c-1.71-1.42-2.56-3.61-2.56-6.57Z"/>
        <path d="M467.26,452.98h-3.18v-20.39h-8.76v-2.77h20.66v2.77h-8.73v20.39Z"/>
        <path d="M501.23,452.98h-18.46v-23.17h18.19v2.77h-14.98v6.95h13.91v2.78h-13.91v7.89h15.25v2.78Z"/>
      </g>
    </g>
  </g>
</svg>